<?xml version="1.0" encoding="utf-8"?>
<!-- Generator: Adobe Illustrator 24.3.0, SVG Export Plug-In . SVG Version: 6.00 Build 0)  -->
<svg version="1.1" id="Ebene_1" xmlns="http://www.w3.org/2000/svg" xmlns:xlink="http://www.w3.org/1999/xlink" x="0px" y="0px"
	 viewBox="0 0 595.3 595.3" style="enable-background:new 0 0 595.3 595.3;" xml:space="preserve">
<style type="text/css">
	.st0{fill:#FFFFFF;}
	.st1{fill:#FFD295;}
	.st2{fill:#FF0000;}
	.st3{fill:#FF0000;fill-opacity:4.705882e-02;}
	.st4{fill:#FF0000;fill-opacity:5.490196e-02;}
</style>
<g id="layer1">
	<g>
		<path d="M237.1,335.6c-40,29.2-71.8,49.1-95.2,59.7c-21.3,10.5-56.6,22-105.9,34.3L0,571.1l595.8,1.1l-20.5-125.1
			c-60.3-22.8-100.6-40.3-120.8-52.5c-21.2-11.7-43-30-65.4-54.9l-151-4.1"/>
	</g>
	<g>
		<path class="st0" d="M241.7,336.1c-6.9,11.1-10.4,20.9-10.6,29.3c-0.7,8.2,1.8,20.8,7.5,37.6c2.8,8.4,7.2,20.3,13.1,35.5
			l48.7,122.9c1.4,3.6,2.7,7,4,10.2h0l27,0.1h0c32-81.9,50.6-132.3,55.9-151.1c5.4-17.8,8.1-31.7,8.2-41.8
			c0.4-10.5-1.8-22.3-6.7-35.4l0-0.1L241.7,336.1z"/>
	</g>
	<g>
		<path d="M313.8,23.2c-15.3-0.9-33.8,7-55.6,23.7c-22.3,15.8-36.5,31.7-42.6,47.6c-11.5,24.6-7.9,72.4,10.6,143.4l166.6,16.6
			c16.5-8.6,26-23.7,28.5-45.3c2.3-15.6,3.1-36.6,2.3-63.2c-1-29.2-3-47.6-6.2-55C413.9,77.6,400,63,375.9,47.1
			c-24.2-15.6-44.8-23.6-61.8-23.9"/>
	</g>
	<g>
		<path class="st1" d="M328.5,86c-29.6,0.3-53.6,8.2-72,23.4c-10.5,9.3-18,21.9-22.3,37.7c-4.2,13.9-6.5,36.3-6.8,67.1L215,182.7
			c-7.3-3.6-11.1,1.1-11.3,14.2c-0.2,21,2,37.6,6.5,49.8c3.4,8.2,9.8,11.1,19.1,8.6c1,13.7,2.2,23.4,3.6,29
			c0.9,4.8,3.5,11.2,7.7,19.1l3.3,37.1c1.1,6.9,2.7,12.5,4.9,16.8c3.2,10.3,24.8,31.6,65,64.1l15.4-0.3c30.4-24.6,47.8-41.6,52.1-51
			c3-5.3,4.9-11,5.6-16.9l0.7-7.1l1-28.1c6-10.2,9.9-18.7,11.8-25.5c2.1-6.6,4.2-18.2,6.2-34.9c9-0.8,15.3-4.8,18.9-11.9
			c4.5-8.7,7.3-22,8.4-39.8c0.6-18.7-2.7-27.4-10-26c-2.9,0.9-5.5,3.7-7.8,8.6c-1.1,2.2-2.2,5.1-3.3,8.6l-4.4,15.8
			c-1.7-55.3-10-90.4-25-105.4C372,93.8,353.7,86.7,328.7,86"/>
	</g>
	<g>
		<path class="st2" d="M314.8,425l-24.1,20.5c5.2,13.1,6.9,23.3,5.3,30.6c-1.3,8.1-6.9,18.7-16.6,31.9l21.8,63.7l3.3,0l27,0.1h0
			l0.2,0l13.7-35.5L335.2,511l-4.9-13.4c-2.6-7.7-3.8-13.4-3.4-17.2c0.2-2.7,1.2-5.4,3.2-8.1l21.6-26.3l-23.1-20.4L314.8,425
			L314.8,425z"/>
	</g>
	<g>
		<path class="st0" d="M363.1,283.2l-45.7,9.2l-41.1-3.9c18.4,14.8,33.4,21.9,45,21.1c5.9-0.4,12-2.5,18.4-6.6
			C345.2,299.7,353,293,363.1,283.2"/>
	</g>
	<g>
		<path class="st3" d="M340.5,255.5l-12,12.8c-6.7,0.2-12,0.1-15.8-0.2c-2.5-0.2-4.9-0.5-7.2-0.9c-1.2-0.2-4.1-0.8-8.7-1.9l-2.3-0.4
			c-1.3-0.2-2,0-2,0.6c0.2,1.2,2,3.2,5.4,5.9c3,2.3,6,4.2,9.3,5.7c5.1,2.4,10,3.1,14.6,2.2c5.9-1.3,10.7-4.3,14.5-9
			c3.1-4,4.4-8.9,4.1-14.7"/>
	</g>
	<g>
		<path class="st4" d="M241.1,303.9l78.3,127c43.6-70.7,66.5-108.4,68.7-113.1c-28.3,38.2-52,56.1-71.1,53.7
			c-10.2-0.9-21.3-6.9-33.5-17.9c-10.2-9.1-24.3-25.6-42.2-49.5"/>
	</g>
	<g>
		<g>
			<path class="st0" d="M272.7,198.4c-2.2,0-4,0.8-5.6,2.3c-1.5,1.6-2.3,3.4-2.3,5.6c0,2.2,0.8,4,2.3,5.6c1.5,1.5,3.4,2.3,5.6,2.3
				c2.2,0,4-0.8,5.6-2.3c1.5-1.6,2.3-3.4,2.3-5.6c0-2.2-0.8-4-2.3-5.6C276.8,199.2,274.9,198.5,272.7,198.4"/>
		</g>
		<g>
			<path d="M272.7,201.1c-1.5,0-2.7,0.5-3.7,1.5c-1,1-1.5,2.3-1.5,3.7c0,1.5,0.5,2.7,1.5,3.7c1,1,2.3,1.5,3.7,1.6
				c1.4,0,2.7-0.5,3.7-1.6c1-1,1.5-2.3,1.5-3.7c0-1.5-0.5-2.7-1.5-3.7C275.4,201.6,274.2,201.1,272.7,201.1"/>
		</g>
	</g>
	<g>
		<g>
			<path class="st0" d="M357.3,196.5c-2.2,0-4,0.8-5.6,2.3c-1.5,1.6-2.3,3.4-2.3,5.6c0,2.2,0.8,4,2.3,5.6c1.5,1.5,3.4,2.3,5.6,2.3
				c2.2,0,4-0.8,5.6-2.3c1.5-1.6,2.3-3.4,2.3-5.6c0-2.2-0.8-4-2.3-5.6C361.3,197.3,359.5,196.6,357.3,196.5"/>
		</g>
		<g>
			<path d="M357.3,199.1c-1.5,0-2.7,0.5-3.7,1.5c-1,1-1.5,2.3-1.5,3.7c0,1.5,0.5,2.7,1.5,3.7c1,1,2.3,1.5,3.7,1.6
				c1.4,0,2.7-0.5,3.7-1.6c1-1,1.5-2.3,1.5-3.7c0-1.5-0.5-2.7-1.5-3.7C360,199.7,358.8,199.1,357.3,199.1"/>
		</g>
	</g>
	<g>
		<path d="M257.4,180.9l29.2-0.7l0.3,6.1l-28.7,2.2l-11.5,6.7L257.4,180.9"/>
	</g>
	<g>
		<path d="M376.3,180.9l-29.2-0.7l-0.3,6.1l28.7,2.2l11.5,6.7L376.3,180.9"/>
	</g>
</g>
</svg>
